<svg width="520" height="122" viewBox="0 0 520 122" fill="none" xmlns="http://www.w3.org/2000/svg">
<path d="M3.12535 31.7882V97.3485H26.1077V31.7882H3.12535ZM4.4559 21.0228C6.99606 23.442 10.3829 24.5306 14.6165 24.5306C18.7292 24.5306 22.1161 23.442 24.7772 21.0228C27.3174 18.6036 28.6479 15.5796 28.6479 11.9508C28.6479 8.56388 27.3174 5.66084 24.7772 3.48356C22.1161 1.30628 18.7292 0.0966797 14.6165 0.0966797C10.3829 0.0966797 6.99606 1.30628 4.4559 3.60452C1.79478 6.02372 0.585205 8.92676 0.585205 12.3136C0.585205 15.8215 1.79478 18.7245 4.4559 21.0228Z" fill="#11CA6D"/>
<path d="M103.22 37.9572C98.2603 33.1188 91.7285 30.6996 83.6241 30.6996C79.3905 30.6996 75.5198 31.4253 72.012 32.8769C68.3832 34.3284 65.3592 36.2637 62.819 38.9249V31.7882H40.9253V97.3485H63.9077V65.657C63.9077 60.5767 64.9963 56.706 67.4155 54.0449C69.8347 51.5047 72.9797 50.1741 76.9714 50.1741C84.108 50.1741 87.7368 54.6497 87.7368 63.6007V97.3485H110.719V59.8509C110.719 50.1741 108.179 42.7956 103.22 37.9572V37.9572Z" fill="#11CA6D"/>
<path d="M192.917 31.7882H171.023L154.452 71.826L138.727 31.7882H115.14L142.114 97.3485H165.822L192.917 31.7882Z" fill="#11CA6D"/>
<path d="M263.499 70.3745C263.741 66.7457 263.862 64.9313 263.862 64.6893C263.862 57.6737 262.29 51.6257 259.145 46.5453C256 41.465 251.887 37.4733 246.565 34.8122C241.243 32.1511 235.316 30.6996 228.784 30.6996C221.889 30.6996 215.72 32.1511 210.277 35.0541C204.713 37.9572 200.479 42.0698 197.334 47.1501C194.189 52.2305 192.738 58.0365 192.738 64.4474C192.738 70.9793 194.31 76.9063 197.455 81.9866C200.6 87.1879 205.197 91.1796 211.003 94.0826C216.809 96.9857 223.462 98.4372 231.203 98.4372C243.42 98.4372 252.734 94.9293 259.145 87.7927L247.049 75.2129C244.63 77.2692 242.331 78.7207 240.033 79.5674C237.735 80.5351 235.074 80.898 231.929 80.898C227.695 80.898 224.187 80.0513 221.405 78.2369C218.623 76.4225 216.809 73.7613 215.841 70.3745H263.499ZM219.954 50.0532C222.373 48.1178 225.276 47.0292 228.905 47.0292C232.413 47.0292 235.316 48.1178 237.735 50.0532C240.154 52.1095 241.605 54.8916 242.331 58.2785H215.478C216.083 54.8916 217.534 52.1095 219.954 50.0532Z" fill="#11CA6D"/>
<path d="M282.197 96.6228C287.519 97.8324 292.842 98.4372 298.406 98.4372C305.179 98.4372 311.107 97.5905 315.945 95.6551C320.783 93.8407 324.533 91.3006 327.073 88.0346C329.492 84.7687 330.823 81.0189 330.823 76.9063C330.823 71.9469 329.492 68.0762 326.831 65.2941C324.17 62.5121 321.146 60.5767 317.638 59.4881C314.01 58.5204 309.534 57.5527 304.212 56.706C299.857 56.1012 296.833 55.4964 295.019 54.8916C293.083 54.2868 292.237 53.1981 292.237 51.6257C292.237 50.2951 293.084 49.2065 294.777 48.3597C296.47 47.513 299.132 47.0292 302.76 47.0292C309.534 47.0292 315.824 48.7226 321.63 51.8676L328.525 36.2637C325.38 34.5703 321.388 33.1188 316.792 32.1511C312.074 31.1834 307.357 30.6996 302.639 30.6996C295.866 30.6996 290.18 31.6673 285.342 33.6026C280.504 35.538 276.875 38.0781 274.456 41.3441C271.916 44.61 270.706 48.3597 270.706 52.4724C270.706 57.5527 272.036 61.5444 274.698 64.3265C277.359 67.2295 280.504 69.1649 284.132 70.1325C287.761 71.2212 292.237 72.0679 297.559 72.6727C301.672 73.2775 304.575 73.8823 306.51 74.4871C308.445 75.0919 309.413 76.0596 309.413 77.5111C309.413 78.9626 308.566 80.1722 306.994 80.898C305.421 81.6237 302.76 81.9866 299.131 81.9866C295.019 81.9866 291.027 81.5028 286.915 80.4141C282.802 79.3255 279.173 77.874 276.27 75.9386L269.375 91.6634C272.52 93.7198 276.875 95.4132 282.197 96.6228V96.6228Z" fill="#11CA6D"/>
<path d="M385.966 94.6875L380.281 78.5998C378.224 80.0513 375.926 80.6561 373.265 80.6561C371.088 80.6561 369.394 80.0513 368.185 78.7207C366.975 77.3902 366.37 75.5758 366.37 73.1566V51.3838H381.369V34.2075H366.37V17.1521H343.388V34.2075H333.832V51.3838H343.388V73.3985C343.388 81.7447 345.686 88.0347 350.283 92.1473C354.879 96.3809 361.411 98.4372 369.999 98.4372C373.144 98.4372 376.047 98.1953 378.829 97.4695C381.611 96.8647 384.03 95.8971 385.966 94.6875V94.6875Z" fill="#11CA6D"/>
<path d="M425.794 32.9978C422.044 34.4493 419.02 36.7476 416.722 39.6506V31.7882H394.828V97.3485H417.81V67.2295C417.81 61.7863 419.141 57.6737 421.923 55.0125C424.705 52.3514 428.576 51.0209 433.535 51.0209C434.866 51.0209 436.559 51.1418 438.736 51.3837V30.6996C433.898 30.6996 429.543 31.5463 425.794 32.9978Z" fill="#11CA6D"/>
<path d="M519.415 31.7882H497.521L481.312 71.826L465.225 31.7882H441.637L469.7 98.1952C468.732 100.131 467.523 101.582 466.071 102.429C464.62 103.397 462.926 103.759 460.749 103.759C458.814 103.759 456.999 103.517 455.185 102.792C453.371 102.066 451.798 101.098 450.588 99.8887L442.605 115.976C444.782 117.791 447.564 119.242 451.072 120.331C454.58 121.42 458.088 121.903 461.596 121.903C468.37 121.903 474.176 120.331 479.014 117.065C483.732 113.799 487.723 108.114 491.11 100.01L519.415 31.7882Z" fill="#11CA6D"/>
</svg>
