<svg width="121" height="122" viewBox="0 0 121 122" fill="none" xmlns="http://www.w3.org/2000/svg">
<path d="M3.12535 31.7882V97.3485H26.1077V31.7882H3.12535ZM4.4559 21.0228C6.99606 23.442 10.3829 24.5306 14.6165 24.5306C18.7292 24.5306 22.1161 23.442 24.7772 21.0228C27.3174 18.6036 28.6479 15.5796 28.6479 11.9508C28.6479 8.56388 27.3174 5.66084 24.7772 3.48356C22.1161 1.30628 18.7292 0.0966797 14.6165 0.0966797C10.3829 0.0966797 6.99606 1.30628 4.4559 3.60452C1.79478 6.02372 0.585205 8.92676 0.585205 12.3136C0.585205 15.8215 1.79478 18.7245 4.4559 21.0228Z" fill="#11CA6D"/>
<path d="M120.415 31.7882H98.5209L82.3123 71.826L66.2246 31.7882H42.6375L70.7001 98.1952C69.7325 100.131 68.5229 101.582 67.0714 102.429C65.6199 103.397 63.9264 103.759 61.7491 103.759C59.8137 103.759 57.9993 103.517 56.1849 102.792C54.3705 102.066 52.7981 101.098 51.5885 99.8887L43.6051 115.976C45.7824 117.791 48.5644 119.242 52.0723 120.331C55.5801 121.42 59.088 121.903 62.5959 121.903C69.3696 121.903 75.1757 120.331 80.0141 117.065C84.7315 113.799 88.7232 108.114 92.1101 100.01L120.415 31.7882Z" fill="#11CA6D"/>
</svg>
